# xmcd
#
# Track frame offsets:
#	150
#	18000
#	35475
#	52725
#	69450
#	90750
#	106125
#	123225
#	138225
#	152475
#	165525
#	183375
#	200850
#	218100
#	234825
#	256125
#	271500
#	288600
#	303600
#	317850
#
# Disc length: 4417 seconds
#
# Revision: 1
# Processed by: cddbd v1.5.1PL2 Copyright (c) Steve Scherf et al.
# Submitted via: audiograbber 1.83.01
#
DISCID=03113f14
DTITLE=Country Hit List - Chl9808
DYEAR=1900
DGENRE=Karaoke
TTITLE0=Garth Brooks (Vocal) - To Make You Feel My Love
TTITLE1=Brooks And Dunn And Reba (Voc - If You See Him If You See Her
TTITLE2=Trisha Yearwood (Vocal) - There Goes My Baby
TTITLE3=Faith Hill And Tim Mcgraw (Vo - Just To Hear You Say That You Love
TTITLE4=Vince Gill (Vocal) - If You Ever Have Forever In Mind
TTITLE5=Martina Mcbride (Vocal) - Happy Girl
TTITLE6=Trace Adkins (Vocal) - Big Time
TTITLE7=Lonestar (Vocal) - Say When
TTITLE8=Suzy Bogguss (Vocal) - Somebody To Love
TTITLE9=Gary Allan (Vocal) - It Would Be You
TTITLE10=Garth Brooks - To Make You Feel My Love
TTITLE11=Brooks And Dunn And Reba - If You See Him If You See Her
TTITLE12=Trisha Yearwood - There Goes My Baby
TTITLE13=Faith Hill And Tim Mcgraw - Just To Hear You Say That You Love
TTITLE14=Vince Gill - If You Ever Have Forever In Mind
TTITLE15=Martina Mcbride - Happy Girl
TTITLE16=Trace Adkins - Big Time
TTITLE17=Lonestar - Say When
TTITLE18=Suzy Bogguss - Somebody To Love
TTITLE19=Gary Allan - It Would Be You
EXTD=
EXTT0=
EXTT1=
EXTT2=
EXTT3=
EXTT4=
EXTT5=
EXTT6=
EXTT7=
EXTT8=
EXTT9=
EXTT10=
EXTT11=
EXTT12=
EXTT13=
EXTT14=
EXTT15=
EXTT16=
EXTT17=
EXTT18=
EXTT19=
PLAYORDER=
